<svg xmlns="http://www.w3.org/2000/svg" xmlns:xlink="http://www.w3.org/1999/xlink" width="1000" zoomAndPan="magnify" viewBox="0 0 750 52.499999" height="70" preserveAspectRatio="xMidYMid meet" version="1.0"><defs><g/><clipPath id="91aa57a938"><path d="M 23.957031 1.683594 L 225.902344 1.683594 L 225.902344 50.320312 L 23.957031 50.320312 Z M 23.957031 1.683594 " clip-rule="nonzero"/></clipPath><clipPath id="80798406a6"><path d="M 216.738281 50.320312 L 33.125 50.320312 C 28.074219 50.320312 23.957031 46.203125 23.957031 41.152344 L 23.957031 10.851562 C 23.957031 5.800781 28.074219 1.683594 33.125 1.683594 L 216.738281 1.683594 C 221.785156 1.683594 225.902344 5.800781 225.902344 10.851562 L 225.902344 41.152344 C 225.902344 46.203125 221.785156 50.320312 216.738281 50.320312 Z M 216.738281 50.320312 " clip-rule="nonzero"/></clipPath><clipPath id="f0986c717e"><path d="M 29.664062 7.742188 L 66.1875 7.742188 L 66.1875 44.265625 L 29.664062 44.265625 Z M 29.664062 7.742188 " clip-rule="nonzero"/></clipPath><clipPath id="76b3ae73e4"><path d="M 63.8125 44.265625 L 32.039062 44.265625 C 30.730469 44.265625 29.664062 43.199219 29.664062 41.890625 L 29.664062 10.117188 C 29.664062 8.808594 30.730469 7.742188 32.039062 7.742188 L 63.8125 7.742188 C 65.121094 7.742188 66.1875 8.808594 66.1875 10.117188 L 66.1875 41.890625 C 66.1875 43.199219 65.121094 44.265625 63.8125 44.265625 Z M 63.8125 44.265625 " clip-rule="nonzero"/></clipPath><clipPath id="b50476a246"><path d="M 36.027344 14.757812 L 61.789062 14.757812 L 61.789062 37.542969 L 36.027344 37.542969 Z M 36.027344 14.757812 " clip-rule="nonzero"/></clipPath></defs><g clip-path="url(#91aa57a938)"><g clip-path="url(#80798406a6)"><path fill="#ebe9e8" d="M 23.957031 1.683594 L 225.902344 1.683594 L 225.902344 50.320312 L 23.957031 50.320312 Z M 23.957031 1.683594 " fill-opacity="1" fill-rule="nonzero"/></g></g><g clip-path="url(#f0986c717e)"><g clip-path="url(#76b3ae73e4)"><path fill="#ffffff" d="M 29.664062 7.742188 L 66.1875 7.742188 L 66.1875 44.265625 L 29.664062 44.265625 Z M 29.664062 7.742188 " fill-opacity="1" fill-rule="nonzero"/></g></g><g clip-path="url(#b50476a246)"><path fill="#577590" d="M 47.273438 14.757812 C 50.148438 14.757812 52.769531 15.835938 54.761719 17.621094 L 54.597656 17.730469 C 54.226562 17.988281 53.84375 18.257812 53.476562 18.539062 C 51.792969 17.136719 49.628906 16.296875 47.273438 16.296875 C 41.914062 16.296875 37.566406 20.636719 37.566406 25.996094 C 37.566406 31.355469 41.914062 35.699219 47.273438 35.699219 C 52.628906 35.699219 56.96875 31.355469 56.96875 25.996094 C 56.96875 24.503906 56.640625 23.097656 56.039062 21.839844 C 56.382812 21.398438 56.742188 20.972656 57.109375 20.5625 C 58.003906 22.171875 58.511719 24.027344 58.511719 25.996094 C 58.511719 32.207031 53.476562 37.234375 47.273438 37.234375 C 41.0625 37.234375 36.035156 32.207031 36.035156 25.996094 C 36.035156 19.792969 41.0625 14.757812 47.273438 14.757812 Z M 47.058594 26.914062 C 45.546875 25.042969 43.261719 21.964844 41.488281 23.164062 C 40.34375 23.933594 39.804688 24.804688 40.285156 25.789062 C 40.785156 26.808594 45.277344 31.207031 46.421875 31.847656 C 47.976562 32.726562 49.054688 31.632812 50.03125 29.746094 C 52.324219 25.320312 55.199219 19.507812 61.796875 15.144531 C 59.398438 15.585938 54.75 18.789062 53.527344 19.816406 C 50.472656 22.398438 47.777344 26.097656 47.058594 26.914062 Z M 47.058594 26.914062 " fill-opacity="1" fill-rule="evenodd"/></g><g fill="#403f3f" fill-opacity="1"><g transform="translate(76.823403, 33.943417)"><g><path d="M 18.699219 -12.15625 C 18.699219 -15.511719 15.257812 -18.023438 11 -18.023438 C 6.855469 -18.023438 1.070312 -15.484375 1.070312 -11.988281 C 1.070312 -10.578125 1.972656 -9.449219 2.847656 -9.449219 C 2.847656 -11.929688 6.316406 -14.808594 10.125 -15.65625 C 7.871094 -13.425781 2.652344 -3.1875 2.652344 -0.5625 C 2.652344 0.789062 4.144531 1.636719 4.851562 1.636719 C 5.050781 1.636719 5.160156 1.550781 5.191406 1.410156 C 5.191406 0.367188 5.980469 -2.03125 7.136719 -4.710938 C 7.757812 -1.210938 11.058594 1.269531 13.398438 1.269531 C 14.46875 1.269531 15.34375 0.734375 15.65625 -0.421875 C 15.429688 -0.367188 15.203125 -0.339844 15.003906 -0.339844 C 12.832031 -0.339844 11 -2.765625 10.238281 -4.710938 C 13.988281 -5.304688 18.699219 -8.320312 18.699219 -12.15625 Z M 7.785156 -6.148438 C 9.28125 -9.363281 11.167969 -12.691406 12.777344 -14.582031 C 12.863281 -14.640625 12.890625 -14.722656 12.890625 -14.808594 C 12.890625 -15.117188 12.496094 -15.597656 11.988281 -15.910156 L 12.355469 -15.910156 C 15.089844 -15.910156 16.472656 -14.835938 16.472656 -13.285156 C 16.472656 -10.886719 12.722656 -6.824219 7.785156 -6.148438 Z M 7.785156 -6.148438 "/></g></g></g><g fill="#403f3f" fill-opacity="1"><g transform="translate(93.407918, 33.943417)"><g><path d="M 13.199219 -7.476562 C 10.492188 -3.46875 6.9375 -1.183594 4.992188 -1.183594 C 4.0625 -1.183594 3.667969 -1.777344 3.667969 -2.539062 L 3.667969 -2.625 C 7.050781 -3.609375 11.085938 -7.699219 11.085938 -10.042969 C 11.085938 -11.3125 9.898438 -12.46875 8.488281 -12.46875 C 5.160156 -12.46875 0.847656 -6.035156 0.847656 -2.625 C 0.847656 -0.5625 2.453125 0.929688 4.484375 0.929688 C 7.050781 0.929688 10.210938 -1.128906 13.988281 -6.742188 C 13.988281 -7.136719 13.484375 -7.476562 13.199219 -7.476562 Z M 9.027344 -10.550781 C 9.363281 -10.550781 9.503906 -10.378906 9.503906 -10.070312 C 9.503906 -8.6875 6.289062 -4.90625 3.949219 -4.0625 C 4.796875 -6.824219 7.503906 -10.550781 9.027344 -10.550781 Z M 9.027344 -10.550781 "/></g></g></g><g fill="#403f3f" fill-opacity="1"><g transform="translate(103.646323, 33.943417)"><g><path d="M 4.570312 0.929688 C 7.136719 0.929688 10.324219 -1.355469 13.988281 -6.742188 C 13.988281 -7.136719 13.484375 -7.476562 13.199219 -7.476562 C 10.578125 -3.554688 7.109375 -1.101562 5.050781 -1.101562 C 4.089844 -1.101562 3.695312 -1.71875 3.695312 -2.652344 C 3.695312 -5.359375 7.078125 -10.773438 8.914062 -10.773438 C 9.222656 -10.773438 9.363281 -10.578125 9.363281 -10.265625 C 9.363281 -9.28125 8.152344 -7.222656 7.136719 -6.234375 C 7.390625 -5.980469 7.671875 -5.867188 7.980469 -5.867188 C 9.421875 -5.867188 11.167969 -8.292969 11.167969 -9.871094 C 11.167969 -10.886719 10.125 -12.46875 8.40625 -12.46875 C 5.050781 -12.46875 0.847656 -6.121094 0.847656 -2.734375 C 0.847656 -0.535156 2.539062 0.929688 4.570312 0.929688 Z M 4.570312 0.929688 "/></g></g></g><g fill="#403f3f" fill-opacity="1"><g transform="translate(113.884727, 33.943417)"><g><path d="M 14.921875 -6.742188 C 14.921875 -7.136719 14.414062 -7.476562 14.132812 -7.476562 C 12.722656 -5.472656 11.339844 -4.511719 10.070312 -4.0625 C 11.058594 -5.980469 11.707031 -7.980469 11.707031 -9.28125 C 11.707031 -11.167969 10.351562 -12.578125 8.886719 -12.578125 C 7.925781 -12.578125 6.996094 -11.960938 6.207031 -11.085938 C 4.144531 -10.351562 0.988281 -5.726562 0.988281 -2.765625 C 0.988281 -0.199219 3.328125 1.015625 4.683594 1.015625 C 6.148438 1.015625 7.699219 -0.394531 8.96875 -2.226562 C 10.660156 -2.59375 12.945312 -3.890625 14.921875 -6.742188 Z M 9.476562 -9.871094 C 9.476562 -8.378906 8.433594 -5.78125 7.191406 -3.722656 C 5.445312 -3.863281 4.796875 -4.796875 4.796875 -5.980469 L 4.796875 -6.0625 C 5.527344 -7.644531 6.601562 -8.996094 7.785156 -9.195312 C 7.980469 -9.109375 8.066406 -9.28125 8.066406 -9.5625 C 8.066406 -9.898438 7.925781 -10.378906 7.617188 -10.746094 C 7.953125 -10.945312 8.292969 -11.058594 8.601562 -11.058594 C 9.222656 -11.058594 9.476562 -10.605469 9.476562 -9.871094 Z M 4.289062 -0.535156 C 3.863281 -0.535156 3.667969 -1.015625 3.667969 -1.777344 C 3.667969 -2.398438 3.808594 -3.1875 4.035156 -4.0625 C 4.542969 -3.242188 5.472656 -2.707031 6.375 -2.398438 C 5.585938 -1.296875 4.824219 -0.535156 4.289062 -0.535156 Z M 4.289062 -0.535156 "/></g></g></g><g fill="#403f3f" fill-opacity="1"><g transform="translate(125.053891, 33.943417)"><g><path d="M 2.425781 0.847656 C 2.707031 0.847656 2.878906 0.789062 2.90625 0.621094 C 4.625 -3.976562 9.109375 -9.082031 9.535156 -9.082031 C 9.617188 -9.082031 9.675781 -9.027344 9.675781 -8.941406 C 9.675781 -8.179688 7.222656 -3.78125 7.222656 -2.480469 C 7.222656 -1.71875 8.378906 -0.789062 9.167969 -0.789062 C 9.394531 -0.789062 9.648438 -0.875 9.757812 -1.15625 C 11.902344 -5.160156 15.570312 -10.070312 16.445312 -10.070312 C 16.527344 -10.070312 16.585938 -10.011719 16.585938 -9.898438 C 16.585938 -9.394531 13.371094 -5.21875 13.371094 -2.734375 C 13.371094 -1.128906 14.609375 0.226562 15.765625 0.226562 C 17.402344 0.226562 20.222656 -2.257812 23.042969 -6.742188 C 23.042969 -7.136719 22.535156 -7.476562 22.253906 -7.476562 C 20.082031 -4.230469 17.742188 -2.144531 16.8125 -2.144531 C 16.527344 -2.144531 16.386719 -2.3125 16.386719 -2.679688 C 16.386719 -4.230469 18.898438 -8.574219 19.800781 -9.757812 C 19.914062 -9.871094 20 -10.042969 20 -10.238281 C 20 -11.3125 18.585938 -12.242188 17.714844 -12.242188 C 16.191406 -12.242188 13.398438 -9.335938 10.660156 -4.878906 L 10.464844 -4.90625 C 11.707031 -7.53125 12.410156 -8.886719 12.410156 -9.535156 C 12.410156 -10.265625 11.421875 -11.253906 10.691406 -11.253906 C 8.996094 -11.253906 5.105469 -5.78125 3.921875 -3.667969 L 3.722656 -3.695312 C 4.851562 -6.628906 6.824219 -10.238281 7.222656 -10.238281 C 7.304688 -10.296875 7.363281 -10.40625 7.363281 -10.492188 C 7.363281 -11.027344 6.429688 -11.902344 5.585938 -11.902344 C 4.175781 -11.902344 0.421875 -3.160156 0.421875 -1.042969 C 0.421875 0.167969 1.71875 0.847656 2.425781 0.847656 Z M 2.425781 0.847656 "/></g></g></g><g fill="#403f3f" fill-opacity="1"><g transform="translate(144.346075, 33.943417)"><g><path d="M 13.199219 -7.476562 C 10.492188 -3.46875 6.9375 -1.183594 4.992188 -1.183594 C 4.0625 -1.183594 3.667969 -1.777344 3.667969 -2.539062 L 3.667969 -2.625 C 7.050781 -3.609375 11.085938 -7.699219 11.085938 -10.042969 C 11.085938 -11.3125 9.898438 -12.46875 8.488281 -12.46875 C 5.160156 -12.46875 0.847656 -6.035156 0.847656 -2.625 C 0.847656 -0.5625 2.453125 0.929688 4.484375 0.929688 C 7.050781 0.929688 10.210938 -1.128906 13.988281 -6.742188 C 13.988281 -7.136719 13.484375 -7.476562 13.199219 -7.476562 Z M 9.027344 -10.550781 C 9.363281 -10.550781 9.503906 -10.378906 9.503906 -10.070312 C 9.503906 -8.6875 6.289062 -4.90625 3.949219 -4.0625 C 4.796875 -6.824219 7.503906 -10.550781 9.027344 -10.550781 Z M 9.027344 -10.550781 "/></g></g></g><g fill="#403f3f" fill-opacity="1"><g transform="translate(154.584479, 33.943417)"><g><path d="M 2.425781 0.847656 C 2.707031 0.847656 2.878906 0.789062 2.90625 0.621094 C 4.625 -3.976562 9.535156 -9.816406 10.691406 -9.816406 C 10.804688 -9.816406 10.859375 -9.757812 10.859375 -9.675781 C 10.859375 -8.914062 7.671875 -5.21875 7.671875 -2.734375 C 7.671875 -1.128906 8.914062 0.226562 10.097656 0.226562 C 11.707031 0.226562 14.527344 -2.257812 17.347656 -6.742188 C 17.347656 -7.136719 16.839844 -7.476562 16.558594 -7.476562 C 14.386719 -4.257812 12.042969 -2.144531 11.113281 -2.144531 C 10.832031 -2.144531 10.691406 -2.3125 10.691406 -2.679688 C 10.691406 -4.144531 13.144531 -8.320312 14.074219 -9.535156 C 14.214844 -9.617188 14.242188 -9.789062 14.242188 -9.984375 C 14.242188 -10.773438 13.3125 -11.988281 11.707031 -11.988281 C 9.898438 -11.988281 5.839844 -7.109375 3.808594 -3.441406 L 3.609375 -3.496094 C 4.683594 -6.488281 6.824219 -10.238281 7.222656 -10.238281 C 7.304688 -10.296875 7.363281 -10.40625 7.363281 -10.492188 C 7.363281 -11.027344 6.429688 -11.902344 5.585938 -11.902344 C 4.175781 -11.902344 0.421875 -3.160156 0.421875 -1.042969 C 0.421875 0.167969 1.71875 0.847656 2.425781 0.847656 Z M 2.425781 0.847656 "/></g></g></g><g fill="#403f3f" fill-opacity="1"><g transform="translate(168.179267, 33.943417)"><g><path d="M 16.21875 -17.769531 C 15.203125 -17.769531 12.863281 -13.960938 11.058594 -10.070312 C 10.773438 -11.058594 9.816406 -12.101562 8.433594 -12.101562 C 4.964844 -12.101562 0.789062 -5.980469 0.789062 -2.226562 C 0.789062 0.199219 2.59375 1.015625 3.808594 1.015625 C 5.132812 1.015625 7.953125 -4.457031 8.96875 -5.726562 L 9.195312 -5.613281 C 8.855469 -4.570312 8.601562 -3.46875 8.601562 -2.878906 C 8.601562 -1.4375 9.535156 -0.0273438 10.691406 -0.0273438 C 12.917969 -0.0273438 15.964844 -4.824219 17.175781 -6.742188 C 17.175781 -7.136719 16.667969 -7.476562 16.386719 -7.476562 C 14.496094 -4.652344 12.636719 -2.679688 11.734375 -2.679688 C 11.421875 -2.679688 11.253906 -2.933594 11.253906 -3.355469 C 11.253906 -6.007812 16.472656 -15.34375 17.910156 -16.132812 C 18.023438 -16.191406 18.050781 -16.273438 18.050781 -16.359375 C 18.050781 -16.839844 17.175781 -17.769531 16.21875 -17.769531 Z M 3.949219 -1.578125 C 3.78125 -1.578125 3.609375 -1.777344 3.609375 -2.226562 C 3.609375 -4.0625 6.347656 -10.125 9.027344 -10.125 C 9.757812 -10.125 10.238281 -9.617188 10.296875 -8.488281 C 8.855469 -8.292969 5.050781 -1.578125 3.949219 -1.578125 Z M 3.949219 -1.578125 "/></g></g></g><g fill="#403f3f" fill-opacity="1"><g transform="translate(181.604831, 33.943417)"><g><path d="M 13.199219 -7.476562 C 10.492188 -3.46875 6.9375 -1.183594 4.992188 -1.183594 C 4.0625 -1.183594 3.667969 -1.777344 3.667969 -2.539062 L 3.667969 -2.625 C 7.050781 -3.609375 11.085938 -7.699219 11.085938 -10.042969 C 11.085938 -11.3125 9.898438 -12.46875 8.488281 -12.46875 C 5.160156 -12.46875 0.847656 -6.035156 0.847656 -2.625 C 0.847656 -0.5625 2.453125 0.929688 4.484375 0.929688 C 7.050781 0.929688 10.210938 -1.128906 13.988281 -6.742188 C 13.988281 -7.136719 13.484375 -7.476562 13.199219 -7.476562 Z M 9.027344 -10.550781 C 9.363281 -10.550781 9.503906 -10.378906 9.503906 -10.070312 C 9.503906 -8.6875 6.289062 -4.90625 3.949219 -4.0625 C 4.796875 -6.824219 7.503906 -10.550781 9.027344 -10.550781 Z M 9.027344 -10.550781 "/></g></g></g><g fill="#403f3f" fill-opacity="1"><g transform="translate(191.843235, 33.943417)"><g><path d="M 16.21875 -17.769531 C 15.203125 -17.769531 12.863281 -13.960938 11.058594 -10.070312 C 10.773438 -11.058594 9.816406 -12.101562 8.433594 -12.101562 C 4.964844 -12.101562 0.789062 -5.980469 0.789062 -2.226562 C 0.789062 0.199219 2.59375 1.015625 3.808594 1.015625 C 5.132812 1.015625 7.953125 -4.457031 8.96875 -5.726562 L 9.195312 -5.613281 C 8.855469 -4.570312 8.601562 -3.46875 8.601562 -2.878906 C 8.601562 -1.4375 9.535156 -0.0273438 10.691406 -0.0273438 C 12.917969 -0.0273438 15.964844 -4.824219 17.175781 -6.742188 C 17.175781 -7.136719 16.667969 -7.476562 16.386719 -7.476562 C 14.496094 -4.652344 12.636719 -2.679688 11.734375 -2.679688 C 11.421875 -2.679688 11.253906 -2.933594 11.253906 -3.355469 C 11.253906 -6.007812 16.472656 -15.34375 17.910156 -16.132812 C 18.023438 -16.191406 18.050781 -16.273438 18.050781 -16.359375 C 18.050781 -16.839844 17.175781 -17.769531 16.21875 -17.769531 Z M 3.949219 -1.578125 C 3.78125 -1.578125 3.609375 -1.777344 3.609375 -2.226562 C 3.609375 -4.0625 6.347656 -10.125 9.027344 -10.125 C 9.757812 -10.125 10.238281 -9.617188 10.296875 -8.488281 C 8.855469 -8.292969 5.050781 -1.578125 3.949219 -1.578125 Z M 3.949219 -1.578125 "/></g></g></g></svg>